<?xml version="1.0" encoding="utf-8"?>
<!-- Generator: Adobe Illustrator 16.0.0, SVG Export Plug-In . SVG Version: 6.00 Build 0)  -->
<!DOCTYPE svg PUBLIC "-//W3C//DTD SVG 1.1//EN" "http://www.w3.org/Graphics/SVG/1.1/DTD/svg11.dtd">
<svg version="1.1" id="Layer_1" xmlns="http://www.w3.org/2000/svg" xmlns:xlink="http://www.w3.org/1999/xlink" x="0px" y="0px"
	 width="1191px" height="244px" viewBox="85.5 184.5 1191 244" enable-background="new 85.5 184.5 1191 244" xml:space="preserve">
<path fill="#3B9CB2" d="M303.124,421.966"/>
<path fill="#FFFFFF" d="M394.183,421.966v-231.93c0,0-58.972-0.656-89.059,40.588c-35.833,49.12-38.197,60.045-73.337,98.57
	c-42.31,46.386-139.151,92.771-139.151,92.771H394.183z"/>
<path fill="#FFFFFF" d="M421.433,422.614v-231.93c0,0,60.175-9.111,108.126,73.174c51.17,66.267,76.156,83.38,76.156,83.38v75.377"
	/>
<path fill="#FFFFFF" d="M735.533,421.966c0,0-69.576-31.477-109.065-68.751v68.751H735.533z"/>
<text transform="matrix(1 0 0 1 728.5 405.5664)" fill="#FFFFFF" font-family="'HelveticaNeue-Bold'" font-size="253.468">RFG</text>
</svg>
