<?xml version="1.0" encoding="utf-8"?>
<!-- Generator: Adobe Illustrator 16.0.0, SVG Export Plug-In . SVG Version: 6.00 Build 0)  -->
<!DOCTYPE svg PUBLIC "-//W3C//DTD SVG 1.1//EN" "http://www.w3.org/Graphics/SVG/1.1/DTD/svg11.dtd">
<svg version="1.1" id="Layer_1" xmlns="http://www.w3.org/2000/svg" xmlns:xlink="http://www.w3.org/1999/xlink" x="0px" y="0px"
	 width="4211px" height="280.486px" viewBox="85.5 148.1 4211 280.486" enable-background="new 85.5 148.1 4211 280.486"
	 xml:space="preserve">
<path fill="#3B9CB2" d="M303.124,405.467"/>
<path fill="#FFFFFF" d="M395.531,380.03v-231.93c0,0-58.973-0.656-89.06,40.588c-35.833,49.12-38.197,60.045-73.337,98.571
	c-42.31,46.384-139.151,92.771-139.151,92.771H395.531z"/>
<path fill="#FFFFFF" d="M421.78,380.679V148.748c0,0,60.175-9.11,108.126,73.174c51.17,66.268,76.156,83.381,76.156,83.381v75.376"
	/>
<path fill="#FFFFFF" d="M736.881,380.03c0,0-69.576-31.477-109.065-68.752v68.752H736.881z"/>
<text transform="matrix(1 0 0 1 838.499 372.5674)" fill="#FFFFFF" font-family="'HelveticaNeue-Bold'" font-size="253.468">Rittenhouse Financial Group</text>
</svg>
